<svg width="20" height="20" viewBox="0 0 20 20" fill="none" xmlns="http://www.w3.org/2000/svg">
<path d="M19.7526 8.48036L17.5171 7.8137C17.3626 7.27458 17.15 6.75377 16.8832 6.26038L17.9776 4.21372C18.0186 4.13647 18.0337 4.04804 18.0204 3.96157C18.0072 3.87511 17.9664 3.7952 17.9042 3.73372L16.3093 2.13373C16.2477 2.07151 16.1677 2.03077 16.0812 2.01756C15.9946 2.00435 15.9061 2.01937 15.8288 2.0604L13.7935 3.14706C13.2947 2.8675 12.7666 2.64392 12.2186 2.48039L11.5513 0.273739C11.5231 0.192417 11.4697 0.122139 11.399 0.0730214C11.3282 0.0239036 11.2437 -0.00152098 11.1576 0.000407288H8.90203C8.81538 0.000810335 8.73111 0.0288302 8.6615 0.080389C8.59188 0.131948 8.54056 0.204355 8.51499 0.287073L7.84767 2.48706C7.29514 2.64971 6.76245 2.87331 6.25945 3.15372L4.25749 2.07373C4.18016 2.03271 4.09165 2.01768 4.0051 2.03089C3.91855 2.0441 3.83857 2.08484 3.77702 2.14706L2.15544 3.72706C2.09316 3.78854 2.05238 3.86844 2.03916 3.95491C2.02593 4.04138 2.04097 4.1298 2.08203 4.20705L3.16309 6.20704C2.88285 6.70744 2.65905 7.23734 2.49577 7.78703L0.286947 8.4537C0.204148 8.47924 0.13167 8.53052 0.0800604 8.60006C0.0284508 8.66961 0.000403443 8.75379 0 8.84036V11.0937C0.000403443 11.1803 0.0284508 11.2644 0.0800604 11.334C0.13167 11.4035 0.204148 11.4548 0.286947 11.4803L2.50912 12.147C2.67418 12.6876 2.89795 13.2084 3.17644 13.7003L2.08203 15.7937C2.04097 15.8709 2.02593 15.9593 2.03916 16.0458C2.05238 16.1323 2.09316 16.2122 2.15544 16.2737L3.75033 17.867C3.81187 17.9292 3.89186 17.9699 3.97841 17.9832C4.06496 17.9964 4.15347 17.9813 4.2308 17.9403L6.29282 16.8403C6.7806 17.1033 7.29514 17.3134 7.82765 17.467L8.49497 19.7136C8.52054 19.7964 8.57186 19.8688 8.64148 19.9203C8.71109 19.9719 8.79536 19.9999 8.88201 20.0003H11.1376C11.2242 19.9999 11.3085 19.9719 11.3781 19.9203C11.4477 19.8688 11.499 19.7964 11.5246 19.7136L12.1919 17.4603C12.7199 17.3059 13.2299 17.0958 13.7134 16.8337L15.7888 17.9403C15.8661 17.9813 15.9546 17.9964 16.0412 17.9832C16.1277 17.9699 16.2077 17.9292 16.2692 17.867L17.8641 16.2737C17.9264 16.2122 17.9672 16.1323 17.9804 16.0458C17.9936 15.9593 17.9786 15.8709 17.9375 15.7937L16.8298 13.727C17.0949 13.2421 17.3075 12.7303 17.4637 12.2003L19.7126 11.5337C19.7954 11.5081 19.8679 11.4569 19.9195 11.3873C19.9711 11.3178 19.9991 11.2336 19.9995 11.147V8.8737C20.0035 8.7908 19.9819 8.70868 19.9378 8.63837C19.8937 8.56806 19.829 8.51292 19.7526 8.48036ZM10.0298 13.667C9.30389 13.667 8.59429 13.452 7.99072 13.0491C7.38715 12.6462 6.91672 12.0735 6.63893 11.4035C6.36114 10.7335 6.28845 9.99629 6.43007 9.28503C6.57169 8.57377 6.92125 7.92043 7.43454 7.40764C7.94783 6.89486 8.60181 6.54564 9.31377 6.40416C10.0257 6.26268 10.7637 6.3353 11.4343 6.61282C12.105 6.89034 12.6782 7.3603 13.0815 7.96328C13.4848 8.56625 13.7001 9.27516 13.7001 10.0004C13.7001 10.9728 13.3134 11.9054 12.6251 12.5931C11.9368 13.2807 11.0032 13.667 10.0298 13.667Z" fill="white"/>
</svg>
