<svg width="50" height="40" viewBox="0 0 50 40" fill="none" xmlns="http://www.w3.org/2000/svg">
<path d="M30.4524 19.4982L30.4524 -1.70891e-06L49.9879 -1.05749e-09L49.9879 20.5735C50.1794 26.6906 48.0966 31.6846 43.7394 35.5556C40.2441 38.5185 35.8151 40 30.4524 40L30.4524 30.1792C33.6604 29.5579 35.9109 28.626 37.2036 27.3835C38.4486 26.141 39.071 24.2533 39.071 21.7204C39.071 21.147 39.0471 20.4062 38.9992 19.4982L30.4524 19.4982ZM1.79232e-06 19.4982L3.49691e-06 -4.37114e-06L19.5355 -2.66329e-06L19.5355 20.5735C19.5355 27.0251 17.4527 32.0191 13.287 35.5556C9.79169 38.5185 5.36269 40 0 40L8.58561e-07 30.1792C3.11228 29.6057 5.33875 28.6977 6.67942 27.4552C7.97221 26.2127 8.6186 24.3728 8.6186 21.9355C8.6186 21.2186 8.59466 20.4062 8.54678 19.4982L1.79232e-06 19.4982Z" fill="black"/>
</svg>
