<svg width="20" height="20" viewBox="0 0 20 20" fill="none" xmlns="http://www.w3.org/2000/svg">
<path fill-rule="evenodd" clip-rule="evenodd" d="M16.9991 2C16.8687 2.00012 16.739 2.02573 16.6173 2.07612C16.4346 2.15181 16.2784 2.27998 16.1685 2.44443C16.0586 2.60888 16 2.80222 16 3H15H14C14 2.65753 14.0586 2.31949 14.1716 2H6C5.46957 2 4.96086 2.21071 4.58579 2.58579C4.21071 2.96086 4 3.46957 4 4V14H11C11.5523 14 12 14.4477 12 15V17C12 17.2618 12.1027 17.5131 12.2858 17.6999C12.2898 17.7025 12.3197 17.7244 12.3909 17.7575C12.4823 17.8001 12.6041 17.8438 12.7475 17.8829C12.9521 17.9387 13.1562 17.9732 13.3159 17.9893C13.4017 17.9443 13.5074 17.8796 13.6098 17.7943C13.6643 17.7489 13.7156 17.7 13.762 17.6466C13.9111 17.4663 14 17.2173 14 17V3C14 2.9999 14 3 15 3C16 3 16 2.9999 16 3V4H17C17.1978 4 17.3911 3.94135 17.5556 3.83147C17.72 3.72159 17.8482 3.56541 17.9239 3.38268C17.9996 3.19996 18.0194 2.99889 17.9808 2.80491C17.9422 2.61093 17.847 2.43275 17.7071 2.29289C17.5673 2.15304 17.3891 2.0578 17.1951 2.01922C17.1305 2.00637 17.0643 2 16.9991 2C16.9994 2 16.9988 2 16.9991 2ZM16.9972 1.27905e-06H6C4.93913 1.27905e-06 3.92172 0.421429 3.17157 1.17157C2.42143 1.92172 2 2.93914 2 4V14H1C0.447715 14 0 14.4477 0 15V16C0 17.0609 0.421428 18.0783 1.17157 18.8284C1.92172 19.5786 2.93913 20 4 20H13.5V19C13.5 20 13.5006 20 13.5012 20L13.5023 20L13.5047 20L13.5096 20L13.5201 19.9998L13.5437 19.9991C13.5606 19.9985 13.5797 19.9974 13.6011 19.9957C13.6436 19.9924 13.695 19.9865 13.7537 19.9764C13.8709 19.9563 14.0191 19.9191 14.1845 19.8507C14.5062 19.7174 14.8681 19.4754 15.1807 19.0602C15.24 18.9971 15.2963 18.9316 15.3495 18.8638C15.7081 18.4168 16 17.802 16 17V6H17C17.5933 6 18.1734 5.82405 18.6667 5.49441C19.1601 5.16477 19.5446 4.69623 19.7716 4.14805C19.9987 3.59987 20.0581 2.99667 19.9424 2.41473C19.8266 1.83279 19.5409 1.29824 19.1213 0.878681C18.7018 0.459123 18.1672 0.173401 17.5853 0.0576455C17.3907 0.018941 17.1937 -0.000180157 16.9972 1.27905e-06ZM10.1716 18H4C3.46957 18 2.96086 17.7893 2.58579 17.4142C2.21071 17.0391 2 16.5304 2 16H10V17C10 17.3439 10.0591 17.6818 10.1716 18Z" fill="white"/>
<path fill-rule="evenodd" clip-rule="evenodd" d="M6 5C6 4.44772 6.44772 4 7 4H11C11.5523 4 12 4.44772 12 5C12 5.55228 11.5523 6 11 6H7C6.44772 6 6 5.55228 6 5Z" fill="white"/>
<path fill-rule="evenodd" clip-rule="evenodd" d="M6 9C6 8.44772 6.44772 8 7 8H11C11.5523 8 12 8.44772 12 9C12 9.55228 11.5523 10 11 10H7C6.44772 10 6 9.55228 6 9Z" fill="white"/>
</svg>
