<svg width="20" height="20" viewBox="0 0 20 20" fill="none" xmlns="http://www.w3.org/2000/svg">
<path d="M0.614381 17.6601L5.05836 19.8821C5.21259 19.959 5.38261 19.9991 5.55498 19.9991C5.72735 19.9991 5.89736 19.959 6.05159 19.8821L9.99896 17.9078L13.9463 19.8809C14.1002 19.959 14.2703 19.9998 14.4428 20C14.6153 20.0002 14.7855 19.9598 14.9396 19.8821L19.3835 17.6601C19.7602 17.4712 19.9979 17.0868 19.9979 16.6657V11.1107C19.9979 10.6897 19.7602 10.3053 19.3835 10.1164L15.5539 8.20216V3.33378C15.5539 2.91271 15.3162 2.52831 14.9396 2.33944L10.4956 0.11745C10.3412 0.0402129 10.171 0 9.9984 0C9.82581 0 9.65558 0.0402129 9.50123 0.11745L5.05725 2.33944C4.68173 2.52831 4.44398 2.91271 4.44398 3.33378V8.20216L0.614381 10.1175C0.429703 10.2095 0.274358 10.3512 0.16582 10.5267C0.0572813 10.7022 -0.000145097 10.9044 2.75317e-07 11.1107V16.6657C2.75317e-07 17.0868 0.237753 17.4712 0.614381 17.6601ZM5.55498 10.1309L8.07027 11.3885L4.83394 13.0072L2.31865 11.7496L5.55498 10.1309ZM9.99896 7.35336L13.3319 5.68687V8.20216L9.99896 9.86866V7.35336ZM16.9582 11.3885L13.7563 12.9894L11.2411 11.7318L14.4429 10.1309L16.9582 11.3885ZM5.55498 17.6456L5.4861 17.6112V15.1659L8.88796 13.4638V15.9791L5.55498 17.6456ZM14.4429 17.6456V15.1303L17.7759 13.4638V15.9791L14.4429 17.6456ZM9.99896 2.35388L12.5143 3.61153L9.31236 5.21247L6.79707 3.95483L9.99896 2.35388Z" fill="white"/>
</svg>
