<svg width="50" height="50" viewBox="0 0 50 50" fill="none" xmlns="http://www.w3.org/2000/svg">
<path d="M25 50C38.8071 50 50 38.8071 50 25C50 11.1929 38.8071 0 25 0C11.1929 0 0 11.1929 0 25C0 38.8071 11.1929 50 25 50Z" fill="#FFDD67"/>
<path d="M22.166 14.8332L12.0827 24.9998C11.416 25.6665 9.08272 23.3332 9.74938 22.6665L19.916 12.4998C20.4994 11.9165 22.8327 14.2498 22.166 14.8332Z" fill="#664E27"/>
<path d="M19.8327 24.9999L9.74938 14.8332C9.08272 14.1665 11.416 11.8332 12.0827 12.4999L22.2494 22.6665C22.8327 23.3332 20.4994 25.6665 19.8327 24.9999Z" fill="#664E27"/>
<path d="M40.25 14.8332L30.1667 24.9998C29.5 25.6665 27.1667 23.3332 27.8334 22.6665L38 12.4998C38.5834 11.9165 40.9167 14.2498 40.25 14.8332Z" fill="#664E27"/>
<path d="M37.9167 24.9999L27.8334 14.8332C27.1667 14.1665 29.5 11.8332 30.1667 12.4999L40.3334 22.6665C40.9167 23.3332 38.5834 25.6665 37.9167 24.9999Z" fill="#664E27"/>
<path d="M25 45C29.1421 45 32.5 41.6421 32.5 37.5C32.5 33.3579 29.1421 30 25 30C20.8579 30 17.5 33.3579 17.5 37.5C17.5 41.6421 20.8579 45 25 45Z" fill="#664E27"/>
<path d="M20 35.0001C21 33.0001 22.8333 31.6667 25 31.6667C27.1667 31.6667 29 33.0001 30 35.0001H20Z" fill="white"/>
</svg>
