<svg width="114" height="16" viewBox="0 0 114 16" fill="none" xmlns="http://www.w3.org/2000/svg">
<path d="M60.4778 10.0364V12.654H57.8125V10.0364H60.4778Z" fill="white"/>
<path d="M2.68807 12.654V6.04387H0L0.0168584 4.15231H2.68807V3.58774C2.67726 2.92521 2.87509 2.27556 3.25452 1.72764C3.63215 1.18349 4.16768 0.760205 4.86112 0.457776C5.60541 0.142962 6.40936 -0.0128013 7.21962 0.000822489C7.92998 -0.00742529 8.6373 0.093405 9.31596 0.299664C9.8933 0.470217 10.4287 0.755666 10.8889 1.13824C11.3053 1.49862 11.5581 1.90535 11.6475 2.35844L9.04285 3.03973C8.93872 2.71429 8.72154 2.43508 8.42921 2.25082C8.1057 2.04231 7.72533 1.93521 7.33847 1.9437C6.79844 1.9437 6.38428 2.11534 6.096 2.45861C5.80772 2.80187 5.66387 3.25 5.66443 3.80298V4.15231H11.0591V6.04387H5.66443V12.6531L2.68807 12.654Z" fill="white"/>
<path d="M13.1875 12.654V0.33194H16.1462V12.654H13.1875Z" fill="white"/>
<path d="M79.765 0.00744629V2.71771H76.7676V0.00744629H79.765Z" fill="white"/>
<path d="M99.556 0.00744629V2.71771H96.5586V0.00744629H99.556Z" fill="white"/>
<path d="M62.3438 12.6548V4.15315H65.3201V6.36176C65.5174 5.84952 65.8327 5.3891 66.2414 5.01656C66.6684 4.63246 67.1682 4.33458 67.7123 4.1399C68.3218 3.92273 68.9664 3.81587 69.6148 3.8245C70.6179 3.8245 71.497 4.03753 72.2523 4.46358C73.0003 4.88297 73.61 5.50444 74.0089 6.25414C74.4253 7.02291 74.6338 7.90011 74.6344 8.88576V12.6548H71.6757V8.96855C71.6864 8.38314 71.5473 7.80447 71.2711 7.2856C71.0158 6.80881 70.6294 6.41189 70.1559 6.1399C69.6561 5.8625 69.0896 5.72212 68.5156 5.73345C67.9419 5.7248 67.3761 5.865 66.8753 6.1399C66.3916 6.41012 65.9936 6.80669 65.7255 7.2856C65.4371 7.8074 65.2918 8.39395 65.3041 8.98759V12.6573L62.3438 12.6548Z" fill="white"/>
<path d="M79.7431 4.15314H76.7676V12.6548H79.7431V4.15314Z" fill="white"/>
<path d="M99.5458 4.15314H96.5703V16H99.5458V4.15314Z" fill="white"/>
<path d="M82.2129 12.6548V4.15314H85.1884V6.36175C85.386 5.84948 85.7016 5.38906 86.1106 5.01655C86.5367 4.63255 87.0356 4.33467 87.5789 4.13989C88.1882 3.9228 88.8325 3.81594 89.4805 3.8245C90.4836 3.8245 91.3631 4.03752 92.1189 4.46357C92.8678 4.88386 93.4781 5.50649 93.8772 6.25744C94.2936 7.02621 94.5021 7.90342 94.5027 8.88907V12.6581H91.544V8.96854C91.555 8.38321 91.4162 7.80453 91.1403 7.28559C90.885 6.80756 90.498 6.40968 90.0234 6.13741C89.5239 5.85989 88.9576 5.71949 88.3839 5.73095C87.8102 5.72223 87.2444 5.86244 86.7436 6.13741C86.2599 6.40843 85.8622 6.80588 85.5947 7.28559C85.3058 7.80726 85.1606 8.3939 85.1732 8.98758V12.6573L82.2129 12.6548Z" fill="white"/>
<path d="M108.916 12.3891C107.992 12.7881 106.938 12.9876 105.754 12.9876C104.961 12.999 104.17 12.8872 103.413 12.6565C102.719 12.4357 102.18 12.1369 101.798 11.7599C101.415 11.383 101.223 10.9691 101.223 10.5182C101.223 10.0215 101.431 9.56209 101.848 9.1399C102.265 8.71771 102.848 8.37003 103.595 8.09685C104.422 7.80934 105.283 7.62793 106.157 7.55712L110.435 7.22599C110.593 7.20804 110.744 7.15109 110.874 7.06043C110.931 7.02468 110.977 6.97572 111.01 6.91793C111.042 6.86013 111.06 6.79532 111.06 6.7293C111.06 6.55325 110.928 6.38465 110.663 6.22351C110.398 6.06291 110.038 5.94122 109.581 5.85761C109.087 5.77167 108.586 5.73011 108.085 5.73344C107.373 5.73468 106.663 5.7984 105.962 5.92384C105.288 6.04022 104.626 6.21814 103.985 6.4553C103.381 6.68322 102.904 6.92963 102.552 7.19453L101.436 5.65066C101.885 5.30684 102.472 4.99393 103.194 4.71192C103.957 4.41791 104.748 4.19831 105.554 4.05629C106.388 3.9029 107.235 3.82503 108.083 3.82367C109.09 3.81342 110.093 3.9504 111.059 4.23013C111.958 4.50165 112.674 4.88797 113.206 5.38907C113.739 5.89017 114.004 6.47406 114.001 7.14073V12.6531H111.025V10.7955C110.543 11.4594 109.84 11.9906 108.916 12.3891ZM104.502 10.6374C104.706 10.7765 104.996 10.8808 105.373 10.9528C105.8 11.0292 106.233 11.0655 106.667 11.0613C107.379 11.0685 108.089 10.9763 108.774 10.7873C109.411 10.604 109.927 10.3576 110.322 10.048C110.717 9.73841 110.954 9.39514 111.032 9.01821V8.68708L106.754 9.01821C106.306 9.0546 105.862 9.12967 105.427 9.24255C105.101 9.31885 104.794 9.45722 104.522 9.64983C104.308 9.8154 104.201 9.98758 104.201 10.1647C104.201 10.3419 104.3 10.4992 104.502 10.6374Z" fill="white"/>
<path d="M34.9423 6.79306C35.369 6.80258 35.775 6.97574 36.0733 7.27549C36.3717 7.57524 36.5387 7.97777 36.5387 8.39695C36.5387 8.81612 36.3717 9.21865 36.0733 9.5184C35.775 9.81815 35.369 9.99132 34.9423 10.0008H22.0304C21.6037 9.99132 21.1977 9.81815 20.8994 9.5184C20.601 9.21865 20.4339 8.81612 20.4339 8.39695C20.4339 7.97777 20.601 7.57524 20.8994 7.27549C21.1977 6.97574 21.6037 6.80258 22.0304 6.79306H34.9423ZM34.9423 4.14405H22.0304C20.8833 4.14841 19.7845 4.59798 18.9735 5.39473C18.1625 6.19149 17.7052 7.27081 17.7012 8.39736C17.7045 9.52506 18.1621 10.6056 18.9741 11.403C19.7861 12.2005 20.8863 12.6499 22.0346 12.6532H34.9423C36.0904 12.6497 37.1905 12.2001 38.0023 11.4028C38.814 10.6054 39.2716 9.52492 39.2749 8.39736C39.2722 7.26945 38.815 6.18845 38.0031 5.39066C37.1912 4.59287 36.0908 4.14319 34.9423 4.13991V4.14405Z" fill="white"/>
<path d="M43.0277 12.654L40.8184 4.13991H43.7686L45.4544 11.3601L47.1082 4.13991H51.2234L52.9092 11.4429L54.579 4.13991H57.4964L55.3714 12.654H50.7353L49.1827 5.46441L47.614 12.6523L43.0277 12.654Z" fill="white"/>
</svg>
