<svg width="62" height="21" viewBox="0 0 62 21" fill="none" xmlns="http://www.w3.org/2000/svg">
<path d="M7.83155 11.2466L20.7371 11.2466C20.6115 13.4249 19.7788 15.416 18.2388 17.2198C16.3725 19.4066 13.9035 20.5 10.832 20.5C8.13703 20.5 5.83128 19.6619 3.91469 17.9856C2.78483 16.9986 1.92279 15.8329 1.32857 14.4885C0.776189 13.2207 0.5 11.8806 0.5 10.4681C0.5 8.41746 1.05656 6.56254 2.16969 4.90332C3.15727 3.43129 4.44196 2.30813 6.02377 1.53382C7.42145 0.844608 8.94049 0.5 10.5809 0.5C13.0164 0.5 15.1464 1.18496 16.9709 2.55488C18.1844 3.47384 19.059 4.61827 19.5947 5.98819H17.4354C16.8412 4.92459 16.0503 4.08647 15.0627 3.47384C13.7822 2.67401 12.3384 2.27409 10.7315 2.27409C9.15809 2.27409 7.69764 2.66975 6.35017 3.46107C5.03619 4.23538 4.02768 5.32025 3.32466 6.7157C2.73043 7.89843 2.43332 9.16199 2.43332 10.5064C2.43332 12.1741 2.8769 13.6844 3.76405 15.0373C4.59261 16.2881 5.70155 17.2411 7.09086 17.8963C8.26257 18.4494 9.48868 18.7259 10.7692 18.7259C13.0373 18.7259 14.9246 17.9601 16.4311 16.4285C17.494 15.3564 18.1677 14.212 18.4523 12.9952L7.83155 12.9952V11.2466Z" fill="white"/>
<path d="M23.4111 20.1554L23.4111 5.86056H25.3193V7.90268C25.7294 7.09434 26.2357 6.51149 26.8383 6.15412C27.4409 5.78824 28.2611 5.57552 29.2989 5.51595V7.43044C26.6458 7.68571 25.3193 9.15348 25.3193 11.8338V20.1554H23.4111Z" fill="white"/>
<path d="M44.6399 5.86056V20.1554H42.7317V17.641C41.9785 18.6706 41.1876 19.4066 40.359 19.8491C39.5305 20.283 38.5178 20.5 37.321 20.5C35.1617 20.5 33.3706 19.798 31.9478 18.3941C30.4999 16.9646 29.776 15.182 29.776 13.0463C29.776 11.0127 30.4288 9.28111 31.7344 7.85163C33.1572 6.29451 34.9692 5.51595 37.1703 5.51595C38.4006 5.51595 39.4593 5.74569 40.3465 6.20517C41.2336 6.66465 42.0287 7.39215 42.7317 8.38768V5.86056H44.6399ZM37.2205 7.29004C35.6806 7.29004 34.3749 7.83886 33.3037 8.9365C32.8099 9.44703 32.4249 10.0427 32.1487 10.7234C31.8558 11.4466 31.7093 12.1741 31.7093 12.9059C31.7093 14.514 32.2282 15.8712 33.266 16.9773C34.354 18.1431 35.7099 18.7259 37.3335 18.7259C38.8567 18.7259 40.1372 18.1728 41.175 17.0667C42.2128 15.9435 42.7317 14.5693 42.7317 12.9442C42.7317 11.3275 42.217 10.0001 41.1876 8.96203C40.0828 7.84737 38.7605 7.29004 37.2205 7.29004Z" fill="white"/>
<path d="M48.8707 20.1554L51.1555 7.60913H48.9711L49.2849 5.86056H51.4693C51.6618 4.91608 51.9045 4.1673 52.1975 3.61423C52.4988 3.06116 52.9172 2.5719 53.4529 2.14646C54.5493 1.27856 55.8423 0.844608 57.3321 0.844608H57.4827L57.7715 0.844608L57.4576 2.59317H57.1814L57.0684 2.59317C55.9804 2.59317 55.1435 2.85269 54.5576 3.37173C53.9801 3.88226 53.5826 4.71187 53.365 5.86056H56.8425L56.5286 7.60913H53.0637L50.7789 20.1554H48.8707Z" fill="white"/>
<path d="M56.0767 20.1554L58.6753 5.86056H60.571L57.9849 20.1554H56.0767ZM59.0017 4.13752L59.6043 0.844608L61.5 0.844608L60.91 4.13752L59.0017 4.13752Z" fill="white"/>
</svg>
