<svg width="24" height="20" viewBox="0 0 24 20" fill="none" xmlns="http://www.w3.org/2000/svg">
<path d="M4.11255 6.66667H15.6277C16.4502 6.66667 17.0585 7.03993 17.4527 7.78646C17.8468 8.53299 18.0181 9.52691 17.9667 10.7682C17.9496 11.1849 17.8403 11.5647 17.639 11.9076C17.4377 12.2504 17.1935 12.5174 16.9065 12.7083C16.6194 12.8993 16.3324 13.0447 16.0454 13.1445C15.7584 13.2444 15.4949 13.2943 15.255 13.2943C14.6553 13.2943 14.1091 13.2378 13.6164 13.125C13.1238 13.0122 12.7232 12.8754 12.4148 12.7148C12.1063 12.5543 11.8215 12.3958 11.5601 12.2396C11.2988 12.0833 11.0268 11.9488 10.744 11.8359C10.4613 11.7231 10.17 11.6667 9.87013 11.6667C9.51028 11.6667 9.14615 11.7513 8.77773 11.9206C8.40932 12.0898 8.07517 12.2765 7.7753 12.4805C7.47542 12.6845 7.03632 12.8711 6.458 13.0404C5.87967 13.2096 5.22209 13.2943 4.48525 13.2943C4.24536 13.2943 3.98189 13.2444 3.69487 13.1445C3.40785 13.0447 3.11869 12.8993 2.82738 12.7083C2.53607 12.5174 2.28975 12.2504 2.08841 11.9076C1.88706 11.5647 1.77782 11.1849 1.76069 10.7682C1.71785 9.51823 1.89349 8.52214 2.28761 7.77995C2.68173 7.03776 3.29004 6.66667 4.11255 6.66667ZM9.87013 20C11.2067 20 12.4833 19.7352 13.6999 19.2057C14.9166 18.6762 15.9661 17.9666 16.8486 17.0768C17.7311 16.1871 18.4315 15.1237 18.9499 13.8867C19.4682 12.6497 19.7274 11.3542 19.7274 10C19.7274 8.97569 19.586 7.99913 19.3033 7.07031L21.9379 9.19271L23.0303 6.66667L19.0077 6.22396C18.9991 6.2066 18.9906 6.1849 18.982 6.15885C18.9734 6.13281 18.9649 6.10894 18.9563 6.08724C18.9477 6.06554 18.9392 6.04601 18.9306 6.02865L22.8118 4.40104L21.1797 2.14844L18.7121 5.57292C17.8982 3.89757 16.6987 2.54991 15.1136 1.52995C13.5286 0.509983 11.7808 0 9.87013 0C8.07946 0 6.42801 0.447049 4.91579 1.34115C3.40357 2.23524 2.20621 3.44835 1.32373 4.98047C0.441243 6.51259 0 8.18576 0 10C0 11.8142 0.441243 13.4874 1.32373 15.0195C2.20621 16.5516 3.40357 17.7648 4.91579 18.6589C6.42801 19.553 8.07946 20 9.87013 20ZM3.95833 7.31771L3.29004 9.16667L4.89651 9.1276C4.65661 9.41406 4.53666 9.77865 4.53666 10.2214C4.53666 10.6033 4.66732 10.9397 4.92864 11.2305C5.18996 11.5213 5.46627 11.6667 5.75758 11.6667C6.05745 11.6667 6.32519 11.5234 6.56081 11.237C6.79642 10.9505 6.91423 10.612 6.91423 10.2214C6.91423 10.0043 6.88424 9.81771 6.82427 9.66146L8.50785 10.026L8.82914 9.23177L3.95833 7.31771ZM15.7819 7.31771L10.9111 9.23177L11.2324 10.026L12.916 9.66146C12.856 9.81771 12.826 10.0043 12.826 10.2214C12.826 10.612 12.9438 10.9505 13.1795 11.237C13.4151 11.5234 13.6828 11.6667 13.9827 11.6667C14.274 11.6667 14.5503 11.5213 14.8116 11.2305C15.0729 10.9397 15.2036 10.6033 15.2036 10.2214C15.2036 9.77865 15.0836 9.41406 14.8438 9.1276L16.4502 9.16667L15.7819 7.31771Z" fill="white"/>
</svg>
