<svg width="212" height="230" viewBox="0 0 212 230" fill="none" xmlns="http://www.w3.org/2000/svg">
<path fill-rule="evenodd" clip-rule="evenodd" d="M210.288 74.6884C211.851 74.1311 211.861 71.9567 211.867 70.3646V70.3644V70.3641V70.3639V70.3636V70.3634C211.869 70.0626 211.87 69.7826 211.881 69.5383L211.891 69.3325C212.035 66.1407 212.199 62.5191 211.217 59.4501C210.215 56.315 206.708 55.0092 203.627 54.4723C196.574 53.2461 188.386 55.9172 181.964 59.1518C179.307 40.6524 171.783 22.5573 156.595 10.9115L156.548 10.8784C156.452 10.7804 156.345 10.6937 156.23 10.6199C138.379 -1.12538 117.612 -2.54383 97.4167 3.50113C88.0529 6.30488 79.725 11.0374 73.1903 18.3749C67.4059 24.8772 63.853 32.7582 61.3892 41.0236C60.35 45.3914 59.6896 49.8695 59.1097 54.3428C59.0366 54.3747 58.9641 54.4065 58.8922 54.4384L59.0511 54.7969C58.9233 55.792 58.7989 56.7867 58.6748 57.7796C58.5663 58.6473 58.458 59.5138 58.3476 60.3781C57.3514 68.153 56.4881 75.6694 57.0194 83.3913C51.4206 73.8958 44.2922 65.386 35.9208 58.204C35.6037 57.9033 35.1829 57.7356 34.7454 57.7356C34.3079 57.7356 33.8871 57.9033 33.5699 58.204C33.1092 58.6124 32.5811 59.0468 32.0234 59.5054L32.0228 59.506L32.0227 59.5061C29.775 61.3546 27.0481 63.5971 26.3246 66.1247C25.5228 68.9256 27.7775 70.9325 29.7342 72.6741L29.7343 72.6742L29.7348 72.6746L29.7356 72.6753L29.7377 72.6772C29.9839 72.8963 30.2253 73.1112 30.4553 73.323L39.8457 81.8734L51.9191 92.8896L52.0386 92.9757C50.033 94.8803 48.0739 96.8267 46.1613 98.8152C44.687 100.36 47.0313 102.706 48.5122 101.162C50.478 99.1157 52.488 97.1272 54.5423 95.1962C54.587 95.2753 54.6381 95.3507 54.695 95.4216L62.4916 105.066C62.6069 105.21 62.7462 105.333 62.9033 105.43C64.321 108.143 66.0943 110.655 68.1763 112.9C61.5481 113.487 54.9751 114.495 48.4002 115.504C44.2835 116.135 40.166 116.766 36.0337 117.295C33.6563 114.498 30.7209 112.947 26.8293 113.099C22.247 113.278 20.4273 115.525 20.2215 119.979C19.823 128.549 26.6234 139.486 34.5661 142.853C34.6068 142.87 34.649 142.884 34.6923 142.893C34.7791 142.943 34.8703 142.985 34.9645 143.019C40.6186 145.032 46.4362 144.747 52.2858 144.46H52.2862H52.2866H52.287H52.2874H52.2879C53.8923 144.382 55.4992 144.303 57.1057 144.272C59.688 144.22 62.2827 144.464 64.8767 144.708L64.8771 144.708C67.9667 144.999 71.0551 145.289 74.12 145.08C72.4531 146.764 70.0756 147.924 67.5388 148.832C67.3915 148.854 67.2496 148.904 67.1204 148.978C65.4511 149.557 63.731 150.032 62.1206 150.477L62.1204 150.477L62.1201 150.477C60.7066 150.868 59.3775 151.236 58.2413 151.629C55.9967 152.418 53.7719 153.253 51.5472 154.108C51.3628 154.139 51.1866 154.206 51.0292 154.307C46.8121 155.937 42.6283 157.654 38.4776 159.424C36.4388 160.295 34.3825 161.282 32.3066 162.279L32.3064 162.279C27.4789 164.597 22.5454 166.965 17.4787 168.041C13.6933 168.829 10.8975 167.921 7.41757 166.509C5.07329 165.562 3.09426 165.224 0.809751 166.423C0.500663 166.614 0.260569 166.898 0.124405 167.234C-0.0117592 167.57 -0.0368884 167.941 0.052674 168.292C0.279613 169.32 0.502205 170.383 0.729375 171.467C2.98183 182.216 5.68442 195.113 17.5385 198.159C26.1928 200.397 34.2406 197.24 42.1985 194.118C44.7073 193.133 47.2071 192.153 49.7143 191.345C56.0299 189.317 62.6244 188.489 69.2322 188.078C72.4863 187.872 75.7471 187.74 79.0078 187.654C79.3274 187.646 79.6618 187.636 80.0075 187.625L80.0098 187.625C83.0252 187.53 86.8998 187.408 89.3479 189.019C94.8832 192.658 82.8027 195.981 78.6583 197.121L78.6575 197.121C78.1979 197.247 77.836 197.347 77.6066 197.417C73.3962 198.696 70.3612 201.142 70.5936 205.875C70.6954 207.946 71.2296 210.018 71.7547 212.053C71.9151 212.675 72.0746 213.294 72.2207 213.908C72.4383 214.833 72.6494 215.761 72.8608 216.69L72.8608 216.691L72.8608 216.691C73.3267 218.739 73.7935 220.792 74.3325 222.816C75.4416 226.873 77.9187 230.406 82.5541 229.696C82.835 229.629 83.0918 229.485 83.2967 229.282C83.5016 229.079 83.6467 228.823 83.7163 228.543C84.055 226.051 84.573 223.055 86.6118 221.325C88.4005 219.807 90.8948 219.641 93.184 219.489C93.504 219.468 93.8199 219.447 94.1294 219.423C96.0267 219.269 97.9239 219.123 99.8211 218.978C103.237 218.716 106.652 218.454 110.068 218.143C118.11 217.414 126.77 215.797 132.249 209.295C137.894 202.607 136.705 191.809 131.638 184.147C131.752 184.03 131.849 183.895 131.924 183.749L131.925 183.747L131.925 183.747C132.031 183.549 132.136 183.351 132.236 183.153C133.794 185.392 135.331 187.663 136.87 189.937L136.874 189.942L136.875 189.944L136.876 189.946L136.878 189.948L136.879 189.95C140.74 195.655 144.617 201.384 148.898 206.703C151.256 209.633 153.826 210.813 157.571 210.892C161.091 210.963 164.623 210.939 168.152 210.916H168.153H168.153H168.153H168.153H168.154H168.155H168.156H168.158H168.159H168.161C169.923 210.904 171.684 210.892 173.443 210.892C173.752 210.904 174.056 210.82 174.315 210.653C174.574 210.486 174.775 210.243 174.891 209.958C175.072 209.67 175.148 209.329 175.105 208.991C175.063 208.654 174.905 208.342 174.659 208.108H174.625C166.646 200.533 159.878 191.946 153.105 183.351C148.902 178.018 144.697 172.682 140.198 167.583C140.03 167.389 139.819 167.237 139.581 167.139C139.997 165.843 140.352 164.51 140.708 163.174C141.517 160.139 142.33 157.087 143.871 154.413C151.411 156.627 158.337 160.552 164.106 165.88C161.078 169.432 157.804 173.562 159.218 178.394C160.467 182.662 165.042 186.023 169.445 186.348C176.823 186.865 181.798 179.143 184.175 173.052C186.317 167.28 187.222 161.125 186.831 154.983C186.486 146.922 183.813 139.133 179.135 132.553C173.676 125.063 165.992 119.959 157.551 116.413C158.437 115.971 159.302 115.496 160.148 114.988C168.084 110.249 173.689 102.209 177.089 93.7778C178.139 91.08 178.906 88.2813 179.38 85.4262C181.266 87.6096 183.652 89.3061 186.064 91.0215L186.473 91.312C191.074 94.5317 194.867 98.7692 197.557 103.694C197.687 103.91 197.865 104.094 198.077 104.232C198.289 104.37 198.529 104.459 198.78 104.492C199.031 104.524 199.286 104.5 199.526 104.42C199.766 104.34 199.985 104.208 200.167 104.032C204.154 100.05 207.684 95.6368 210.693 90.8746C210.934 90.653 211.088 90.3517 211.124 90.0262C211.195 89.7792 211.195 89.5176 211.124 89.2705C210.96 87.3206 210.385 85.4274 209.437 83.7142C208.49 82.0011 207.191 80.5065 205.626 79.3282C204.289 78.3321 202.44 77.719 200.563 77.0966C197.981 76.2405 195.347 75.367 193.924 73.4556C197.245 73.6345 200.492 73.9461 203.759 74.2907C204.363 74.3022 205.123 74.4256 205.93 74.5567C207.449 74.8034 209.139 75.0779 210.288 74.6884ZM62.1249 56.4911C61.9366 57.9952 61.758 59.4988 61.58 60.9971L61.5799 60.9985L61.5796 61.0006L61.5794 61.0021L61.5793 61.0029C61.4787 61.8505 61.3782 62.6964 61.2763 63.5397C61.1887 64.2659 61.0975 64.9941 61.0061 65.7238L61.006 65.7253C60.4602 70.0844 59.9074 74.5004 60.061 78.8775C60.5325 92.6244 64.0921 108.572 77.1948 115.691C100.956 128.503 128.975 126.541 152.663 115.028C152.777 114.949 152.902 114.888 153.035 114.849C154.868 113.974 156.681 113 158.454 111.986C165.972 107.485 171.458 99.4979 174.393 91.3319C175.994 86.8832 176.546 82.2201 177.098 77.5632C177.182 76.8498 177.267 76.1365 177.355 75.4242L177.368 75.4507C177.538 74.1351 177.742 72.8242 177.946 71.5141L177.946 71.5127L177.946 71.5124L177.946 71.5121L177.946 71.5118L177.946 71.5114C178.293 69.2848 178.639 67.0607 178.818 64.821C168.013 59.9517 157.243 56.4719 146.815 54.0814C152.123 58.7283 155.883 65.0213 156.713 72.143C157.67 80.3621 154.263 88.992 147.622 94.056C139.765 100.081 127.805 100.247 118.355 100.147C106.687 99.9949 94.8323 98.5168 83.3167 96.6808C74.3779 95.2623 70.1941 86.9969 68.0025 79.043C66.6279 72.4347 68.6467 64.8255 71.7348 58.9528C73.3802 55.8277 75.6311 53.6955 78.302 52.1541C71.6231 53.391 66.125 54.9435 62.1249 56.4911ZM62.5868 52.9801C72.0263 49.6342 87.646 46.5575 106.58 46.4848C127.772 46.4033 153.219 50.0834 178.938 61.4442L178.937 61.3795L178.935 61.2795C178.598 58.5033 178.142 55.7176 177.558 52.95C126.451 29.787 80.6918 38.3379 63.8007 45.5943C63.3228 48.0332 62.9318 50.5022 62.5868 52.9801ZM64.609 41.8843C83.343 34.6599 127.469 27.6116 176.663 49.1224C173.145 35.4234 166.314 22.4956 154.928 13.7815C154.838 13.7152 154.756 13.6396 154.682 13.5562L154.569 13.4965C137.761 2.42073 118.469 0.902859 99.3758 6.39767C90.4237 8.97606 82.5408 13.1717 76.1655 20.0518C70.4307 26.2454 66.9992 33.8855 64.609 41.8843ZM31.8366 64.355C32.7863 63.4072 33.7692 62.5057 34.7653 61.6109C36.7311 63.3519 38.6215 65.1614 40.4367 67.0394C38.7241 66.83 37.027 66.509 35.3564 66.0783C34.9323 65.9731 34.4839 66.0349 34.1043 66.2509C33.7247 66.4669 33.4429 66.8205 33.3176 67.2383L32.0425 70.6783C31.4817 70.1253 30.9706 69.5243 30.5151 68.8821C29.1815 66.9595 30.1725 65.9879 31.5245 64.6625L31.5252 64.6617C31.6272 64.5617 31.7313 64.4596 31.8366 64.355ZM34.7055 73.0181C35.1261 71.8869 35.5467 70.7535 35.9673 69.6178C38.5229 70.1826 41.1226 70.5264 43.7373 70.6452C45.0191 72.1167 46.2609 73.6345 47.4497 75.1789L41.4263 73.9527C41.1792 73.8893 40.9208 73.8829 40.6709 73.9339C40.4209 73.985 40.1859 74.0922 39.9836 74.2474C39.7813 74.4027 39.6172 74.6019 39.5035 74.8299C39.3899 75.0579 39.3297 75.3087 39.3277 75.5634V76.942L38.1722 75.8881C37.4123 75.1889 36.5389 74.4896 35.6417 73.7713C35.3312 73.5228 35.018 73.272 34.7055 73.0181ZM54.2634 90.5498L42.6349 79.9446V77.5518L50.1991 79.0896C50.2455 79.0928 50.2921 79.0928 50.3385 79.0896C52.5356 82.257 54.5446 85.5502 56.3553 88.9524L56.3552 88.9525C55.6911 89.5291 55.027 90.1057 54.4227 90.6956C54.3722 90.6443 54.319 90.5956 54.2634 90.5498ZM57.0327 93.0553C57.0327 93.0259 57.0033 93.0045 56.9734 92.9826C56.9561 92.97 56.9386 92.9572 56.9264 92.9426C57.2519 92.6387 57.5857 92.3431 57.9212 92.0459C58.0101 91.9672 58.0992 91.8883 58.1882 91.8092C58.4406 93.0774 58.7372 94.3345 59.0781 95.5806L57.0327 93.0553ZM72.9711 164.475C73.5915 162.843 74.0368 161.15 74.2993 159.424C74.3156 159.285 74.3156 159.145 74.2993 159.006L75.6807 159.205C76.6104 161.306 77.4671 164.687 76.6503 167.026C76.0043 167.083 75.3193 167.04 74.6461 166.998C74.1427 166.967 73.6459 166.936 73.177 166.947C72.7453 166.947 72.3137 166.947 71.8886 167.02C72.053 166.602 72.2424 166.19 72.431 165.78L72.4311 165.779C72.6311 165.344 72.8302 164.911 72.9977 164.475H72.9711ZM67.1536 152.139L67.5919 151.994C67.7282 152.049 67.871 152.087 68.0169 152.106C69.0662 152.245 70.1155 152.398 71.1648 152.557C70.468 153.329 69.8412 154.16 69.292 155.043C66.4142 154.724 63.5364 154.486 60.6587 154.327C62.8325 153.584 65.0063 152.855 67.1802 152.139H67.1536ZM69.0662 158.887L68.9221 158.996C68.5264 159.296 68.1348 159.593 67.738 159.947C66.9922 160.671 66.2914 161.439 65.6394 162.247L65.1015 161.724C65.0102 161.636 64.9114 161.546 64.809 161.453C64.6732 161.33 64.531 161.201 64.3909 161.061C65.1281 160.704 65.8792 160.363 66.6322 160.02L66.6329 160.02L66.6336 160.02L66.6343 160.02L66.6351 160.019L66.6361 160.019L66.6366 160.019C67.4491 159.649 68.2639 159.279 69.0662 158.887ZM132.156 194.209C134.414 203.628 128.61 210.521 119.804 213.113C113.567 214.947 106.821 215.309 100.199 215.664L100.199 215.664L100.198 215.665C97.7035 215.798 95.2267 215.931 92.8012 216.142C89.8542 216.4 86.7302 216.741 84.4152 218.762C84.269 218.513 84.108 218.195 83.9365 217.8C83.3359 216.416 82.7507 214.435 82.2111 212.156C81.269 208.178 80.5169 203.518 80.0551 200.103C82.5704 199.51 85.0481 198.768 87.4751 197.881C90.344 196.708 94.7803 194.189 94.5146 190.537C94.2158 186.262 88.5908 184.909 85.1641 184.479C80.469 183.904 75.5341 184.251 70.7668 184.587L70.7661 184.587C70.0379 184.639 69.3136 184.69 68.5947 184.737C62.9113 185.02 57.2687 185.852 51.7464 187.223C48.4408 188.108 45.1378 189.452 41.8105 190.805C34.7375 193.682 27.5551 196.603 20.0053 195.266C19.4613 195.042 18.7763 194.346 18.1103 192.72C17.4017 190.99 16.8912 188.624 16.5521 185.939C15.9439 181.123 15.923 175.586 16.1125 171.59C18.381 171.319 20.6251 170.637 22.7451 169.83C26.9651 168.214 31.1165 166.349 35.2696 164.482L35.27 164.482C38.3059 163.117 41.3428 161.752 44.4081 160.484C47.018 159.404 49.6479 158.377 52.2777 157.382C56.0963 157.382 59.9215 157.568 63.7467 157.86C62.8113 158.171 61.9188 158.598 61.0903 159.132C59.1355 160.562 60.8377 162.205 62.0466 163.372C62.0985 163.422 62.1496 163.472 62.1994 163.52C62.3819 163.697 62.5754 163.903 62.779 164.119L62.7792 164.119C63.9239 165.334 65.3854 166.885 66.9809 165.641C67.5406 165.207 68.0056 164.623 68.4714 164.037L68.4715 164.037C68.8237 163.594 69.1764 163.151 69.5709 162.771C69.7834 162.566 70.0092 162.373 70.235 162.181C69.9818 163.012 69.6848 163.828 69.3451 164.627C68.6288 166.006 68.2188 167.523 68.1431 169.075C68.1469 169.329 68.2086 169.579 68.3234 169.806C68.4383 170.033 68.6034 170.231 68.8062 170.385C69.009 170.538 69.2443 170.644 69.4941 170.694C69.7439 170.744 70.0018 170.736 70.2483 170.672C71.7251 170.261 73.1792 170.285 74.6513 170.309H74.6516H74.6519C75.4371 170.321 76.2273 170.334 77.0288 170.281C78.5562 170.181 79.3133 169.618 79.745 168.133C80.4392 165.386 80.3239 162.498 79.4129 159.815C97.5463 162.924 115.007 169.131 131.027 178.162C130.496 179.2 129.96 180.241 129.42 181.284C126.046 177.532 121.59 175.047 116.55 175.126C114.411 175.126 114.411 178.44 116.55 178.44C124.984 178.301 130.416 186.918 132.156 194.209ZM77.0344 201.134C74.8925 202.143 73.5254 203.719 74.0005 206.816C74.335 209.08 74.9195 211.338 75.5005 213.583C75.7615 214.591 76.0218 215.597 76.2584 216.599C76.355 217.005 76.4528 217.535 76.5642 218.14C77.1113 221.109 77.9876 225.865 80.6747 226.415C80.9907 224.63 81.4988 222.863 82.3844 221.301C82.3583 221.271 82.3331 221.241 82.3088 221.212C81.8244 220.625 81.4156 219.86 81.0628 219.048C80.3504 217.407 79.715 215.211 79.1625 212.878C78.2451 209.004 77.5097 204.546 77.0344 201.134ZM13.4439 186.332C13.7818 189.008 14.3038 191.579 15.104 193.639C11.6887 191.826 9.36875 188.798 7.94221 184.783C6.17336 179.589 4.72075 174.292 3.59234 168.922C4.84478 168.812 6.14293 169.439 7.31079 170.003C7.68487 170.184 8.04559 170.358 8.38716 170.5C9.83731 171.133 11.38 171.529 12.9562 171.673L12.9724 171.674C12.7886 175.777 12.8188 181.382 13.4439 186.332ZM132.508 175.159C116.122 165.951 98.2688 159.633 79.7317 156.481C80.0972 155.697 80.5422 154.953 81.0599 154.26C99.3541 158.038 117.049 164.282 133.657 172.82L133.458 173.237C133.148 173.891 132.839 174.541 132.521 175.186L132.508 175.159ZM150.683 185.535C156.642 193.092 162.591 200.635 169.353 207.498H160.639C160.199 207.498 159.738 207.514 159.266 207.531C157.395 207.595 155.353 207.665 153.772 206.776C152.174 205.877 151.083 204.234 150.068 202.707L150.068 202.707C149.826 202.343 149.589 201.985 149.35 201.646L134.075 179.985C134.018 179.91 133.956 179.839 133.889 179.773C135.463 176.677 136.971 173.555 138.279 170.341C142.59 175.273 146.639 180.407 150.683 185.535L150.683 185.535ZM177.209 135.483C183.717 145.306 185.178 158.065 181.857 169.287C180.596 173.569 178.006 178.758 174.4 181.436C170.687 184.187 165.235 182.583 162.964 178.692C160.638 174.71 164.059 170.766 166.719 167.7L166.72 167.699C166.999 167.376 167.271 167.063 167.526 166.761C168.019 166.207 168.476 165.626 168.932 165.045L168.932 165.045L168.932 165.044L168.933 165.044L168.933 165.044L168.933 165.044C169.399 164.45 169.865 163.857 170.368 163.295C170.651 162.979 170.802 162.567 170.79 162.144C170.778 161.721 170.605 161.318 170.305 161.019C170.005 160.719 169.601 160.546 169.177 160.534C168.753 160.522 168.34 160.673 168.024 160.955C167.511 161.503 167.062 162.082 166.612 162.662L166.61 162.664L166.534 162.762L166.406 162.927C166.341 163.01 166.276 163.093 166.211 163.175C159.926 157.421 152.38 153.213 144.176 150.887C144.076 150.86 143.974 150.842 143.871 150.834C143.503 150.648 143.079 150.602 142.68 150.704C142.28 150.807 141.932 151.05 141.699 151.39C139.652 154.341 138.748 157.723 137.837 161.13C137.45 162.575 137.062 164.025 136.586 165.449C136.101 166.901 135.556 168.326 134.972 169.731C115.609 159.825 94.8121 153.004 73.3364 149.515C75.6803 148.26 77.5761 146.31 78.7621 143.934C78.9109 143.74 79.0091 143.512 79.0477 143.271C79.128 143.103 79.1719 142.919 79.1765 142.733C79.181 142.546 79.1461 142.361 79.074 142.189C79.002 142.017 78.8943 141.862 78.7582 141.734C78.622 141.607 78.4604 141.509 78.284 141.448C78.0981 141.323 77.8874 141.239 77.6663 141.203C77.4451 141.166 77.2186 141.177 77.0022 141.236C72.9638 142.176 68.7892 141.749 64.6271 141.324L64.6268 141.324C62.0952 141.066 59.5682 140.808 57.0792 140.858C55.4753 140.89 53.8702 140.974 52.267 141.059H52.2669H52.2668H52.2666H52.2665H52.2664C46.7601 141.349 41.2774 141.638 35.9541 139.764C30.8471 137.471 26.7894 131.811 24.7639 126.733C23.6682 123.969 21.8153 117.626 25.9261 116.38C28.981 115.452 32.0757 117.407 33.8156 119.694C33.9058 120.002 34.1091 120.265 34.385 120.429C34.6608 120.594 34.9888 120.649 35.3032 120.582C39.6468 120.038 43.9758 119.371 48.3047 118.703L48.3052 118.703L48.3057 118.703L48.3061 118.703L48.3066 118.703L48.3071 118.703C56.0033 117.516 63.6993 116.329 71.4769 115.837C72.7294 116.829 74.0621 117.716 75.4615 118.488C100.033 131.744 128.948 129.955 153.52 118.203C162.871 121.703 171.663 127.118 177.222 135.509L177.209 135.483ZM198.695 79.6365L198.696 79.6366C200.629 80.254 202.566 80.8725 204.131 82.2446C206.169 83.9972 207.465 86.456 207.757 89.1247C205.292 93.0079 202.459 96.6458 199.297 99.9884C197.054 96.3073 194.192 93.0402 190.836 90.3311C189.84 89.5317 188.79 88.7888 187.741 88.0466L187.741 88.0464C184.833 85.9884 181.933 83.9366 180.21 80.7069C180.185 80.6596 180.156 80.6207 180.128 80.5829L180.128 80.5828C180.113 80.5623 180.098 80.5422 180.084 80.5213C180.197 79.6198 180.303 78.725 180.41 77.8236C180.562 76.5709 180.748 75.3115 180.941 74.0521C181.616 73.4543 183.956 73.3645 185.246 73.315C185.529 73.3041 185.762 73.2952 185.915 73.2832C187.296 73.1772 188.684 73.1507 190.072 73.1639C191.128 76.0804 193.718 77.8435 196.62 78.957L196.614 78.9305C197.295 79.1894 197.994 79.4127 198.694 79.6361L198.694 79.6362L198.695 79.6363L198.695 79.6364L198.695 79.6365ZM193.473 69.936C190.436 69.7447 187.389 69.7957 184.361 70.0884C184.148 70.1126 183.92 70.1354 183.681 70.1593C183.002 70.2273 182.233 70.3042 181.472 70.4463C181.886 67.8908 182.139 65.3117 182.229 62.7245C188.439 59.4103 197.451 56.0299 204.497 58.0317C208.468 59.1577 208.527 61.9073 208.603 65.4833L208.607 65.6806C208.607 67.0659 208.607 68.4513 208.541 69.8299C208.541 69.9929 208.504 70.2192 208.464 70.4625C208.421 70.7238 208.375 71.0047 208.368 71.2484C208.147 71.2598 207.925 71.2598 207.704 71.2484L204.072 70.8507C200.559 70.4861 197.019 70.1481 193.479 69.9625L193.473 69.936ZM143.982 92.5514C148.311 89.8255 151.442 85.5614 152.742 80.6206C155.644 70.3468 150.179 59.967 141.612 54.207C135.934 52.5558 129.841 51.9296 123.952 51.3243C123.435 51.2712 122.919 51.2182 122.406 51.1647C121.751 51.0943 121.095 51.0225 120.437 50.9505L120.434 50.9502L120.431 50.9499C114.332 50.2828 108.084 49.5996 101.978 49.8987C94.7526 50.2831 85.6145 51.516 79.2989 55.2013C72.7575 59.0125 69.7226 71.1488 71.1769 78.1416C72.3657 82.4566 73.9861 87.0234 77.3066 90.205C80.4753 93.2522 84.7649 93.7025 88.9714 94.1441C89.8431 94.2356 90.7111 94.3267 91.5649 94.4404C103.446 95.9981 115.459 97.4762 127.46 96.5283C132.992 96.124 139.121 95.4612 143.982 92.5514ZM104.23 105.715C105.873 105.551 107.532 105.666 109.138 106.053C111.216 106.537 110.333 109.731 108.254 109.254C106.935 108.954 105.575 108.878 104.23 109.029C103.791 109.025 103.37 108.85 103.06 108.54C102.749 108.23 102.573 107.81 102.57 107.372C102.578 106.935 102.756 106.518 103.065 106.209C103.375 105.9 103.792 105.723 104.23 105.715ZM136.361 63.9605C131.579 66.8361 126.521 69.2378 121.263 71.1306C119.21 71.8618 120.093 75.1388 122.172 74.3941C122.959 74.1097 123.746 73.8118 124.526 73.5139C124.149 74.6035 123.957 75.7475 123.958 76.8992C123.958 81.7199 127.187 85.6334 131.162 85.6334C135.136 85.6334 138.365 81.7199 138.365 76.8992C138.365 73.4326 136.689 70.4468 134.261 69.0385C135.547 68.3479 136.817 67.6279 138.071 66.8786C139.966 65.7547 138.249 62.823 136.361 63.9605ZM83.9964 63.9586C88.7745 66.8417 93.8291 69.2475 99.0861 71.1406C101.144 71.9069 100.248 75.2097 98.1767 74.4366C97.2332 74.0975 96.2897 73.738 95.3598 73.365C95.7654 74.4948 95.9712 75.6855 95.9683 76.8848C95.9683 81.7135 92.7548 85.6334 88.7756 85.6334C84.7964 85.6334 81.5761 81.7135 81.5761 76.8848C81.5761 73.3447 83.3127 70.2793 85.8083 68.9229C84.6118 68.2447 83.4358 67.5665 82.2666 66.8884C80.3864 65.7558 82.1094 62.826 83.9964 63.9586Z" fill="#203492"/>
</svg>
