<svg width="50" height="40" viewBox="0 0 50 40" fill="none" xmlns="http://www.w3.org/2000/svg">
<path d="M19.5476 20.5018V40H0.0120963V19.4265C-0.179428 13.3094 1.9034 8.31541 6.26058 4.44444C9.75591 1.48148 14.1849 0 19.5476 0V9.82079C16.3396 10.4421 14.0892 11.374 12.7964 12.6165C11.5514 13.859 10.929 15.7467 10.929 18.2796C10.929 18.853 10.9529 19.5938 11.0008 20.5018H19.5476ZM50 20.5018V40H30.4645V19.4265C30.4645 12.9749 32.5473 7.98088 36.713 4.44444C40.2083 1.48148 44.6373 0 50 0V9.82079C46.8877 10.3943 44.6613 11.3023 43.3206 12.5448C42.0278 13.7873 41.3814 15.6272 41.3814 18.0645C41.3814 18.7814 41.4053 19.5938 41.4532 20.5018H50Z" fill="black"/>
</svg>
