<svg width="30" height="29" viewBox="0 0 30 29" fill="none" xmlns="http://www.w3.org/2000/svg">
<path fill-rule="evenodd" clip-rule="evenodd" d="M16.0184 7.09825C18.5751 9.46791 18.7267 13.4615 16.3571 16.0182C13.9874 18.5749 9.99379 18.7265 7.43709 16.3569C4.88039 13.9872 4.72876 9.99363 7.09842 7.43693C9.46807 4.88022 13.4617 4.72859 16.0184 7.09825ZM18.6968 16.2359C20.8515 12.9136 20.3726 8.42495 17.369 5.64106C14.0075 2.5255 8.75679 2.72486 5.64123 6.08634C2.52566 9.44783 2.72502 14.6985 6.08651 17.8141C9.2354 20.7326 14.0421 20.7422 17.1985 17.9686L23.1073 23.4451L24.6635 21.7661L18.6968 16.2359Z" fill="black"/>
</svg>
