<svg width="21" height="19" viewBox="0 0 21 19" fill="none" xmlns="http://www.w3.org/2000/svg">
<path d="M2.57493 8.43L0.144933 14.29C-0.265067 15.31 0.224933 16.48 1.23493 16.9L2.57493 17.46V8.43ZM20.7349 13.2L15.7749 1.23C15.624 0.872255 15.3728 0.565796 15.0517 0.347559C14.7305 0.129321 14.3531 0.00861916 13.9649 0C13.7049 0 13.4349 0.0400001 13.1749 0.15L5.80493 3.2C5.31838 3.40331 4.93186 3.79064 4.72958 4.27762C4.52729 4.76461 4.52562 5.31179 4.72493 5.8L9.68493 17.77C9.88803 18.2567 10.2753 18.6434 10.7624 18.8457C11.2495 19.048 11.7968 19.0496 12.2849 18.85L19.6449 15.8C20.1342 15.5997 20.5238 15.2132 20.7282 14.7257C20.9326 14.2381 20.935 13.6893 20.7349 13.2ZM11.5349 17L6.57493 5.04L13.9249 2H13.9349L18.8849 13.95L11.5349 17Z" fill="white"/>
<path d="M9.70508 7.25C10.2574 7.25 10.7051 6.80228 10.7051 6.25C10.7051 5.69772 10.2574 5.25 9.70508 5.25C9.15279 5.25 8.70508 5.69772 8.70508 6.25C8.70508 6.80228 9.15279 7.25 9.70508 7.25Z" fill="white"/>
<path d="M8.03594 19L4.58594 10.66V17C4.58594 18.1 5.48594 19 6.58594 19H8.03594Z" fill="white"/>
</svg>
