<svg width="35" height="35" viewBox="0 0 35 35" fill="none" xmlns="http://www.w3.org/2000/svg">
<path d="M25.7609 24.151L2.55763 34.2472C1.04513 34.8492 -0.45798 33.359 0.130807 31.8414L10.2705 8.27295" fill="#FFB636"/>
<path d="M0.13162 31.841L0.937453 29.9679C1.00655 29.8626 1.07545 29.7571 1.14462 29.6518C5.1527 23.5458 9.21951 17.4772 13.4252 11.5054L18.1409 16.339C14.5828 18.7817 3.02977 30.7207 0.609831 33.8876C0.083047 33.403 -0.172969 32.6261 0.13162 31.841Z" fill="#FFD469"/>
<path d="M20.5994 13.6279C24.9037 17.9323 27.258 22.5567 25.8578 23.957C24.4576 25.3571 19.8332 23.0029 15.5288 18.6986C11.2244 14.3943 8.87024 9.76983 10.2704 8.36957C11.6706 6.96931 16.295 9.32356 20.5994 13.6279Z" fill="#A06C33"/>
<path d="M10.2464 22.1969C10.2464 22.6153 9.90721 22.9544 9.48892 22.9544C9.07062 22.9544 8.73145 22.6153 8.73145 22.1969C8.73145 21.7786 9.07055 21.4395 9.48892 21.4395C9.90728 21.4395 10.2464 21.7786 10.2464 22.1969Z" fill="#F7F9AA"/>
<path d="M34.3507 14.2351C34.3507 14.8355 33.864 15.3222 33.2636 15.3222C32.6632 15.3222 32.1765 14.8355 32.1765 14.2351C32.1765 13.6347 32.6632 13.1479 33.2636 13.1479C33.864 13.1479 34.3507 13.6347 34.3507 14.2351ZM27.091 28.711C26.4906 28.711 26.0039 29.1977 26.0039 29.7981C26.0039 30.3985 26.4906 30.8852 27.091 30.8852C27.6914 30.8852 28.1781 30.3985 28.1781 29.7981C28.1781 29.1977 27.6914 28.711 27.091 28.711Z" fill="#FFB636"/>
<path d="M24.1885 4.93594C24.0952 5.56676 23.6877 6.12395 23.0702 6.46465C22.6439 6.69986 22.1426 6.82213 21.6223 6.82213C21.4565 6.82205 21.291 6.80982 21.127 6.78553C20.759 6.73111 20.3907 6.78664 20.1166 6.93786C19.9937 7.00563 19.7826 7.15393 19.7483 7.38587C19.714 7.6178 19.8732 7.82086 19.9712 7.92128C20.184 8.13944 20.5087 8.29573 20.8653 8.35412C20.8751 8.35516 20.8848 8.35551 20.8947 8.35697C22.3991 8.57938 23.4737 9.77101 23.29 11.0134C23.1967 11.6443 22.7891 12.2015 22.1716 12.5422C21.7453 12.7774 21.2441 12.8996 20.7238 12.8996C20.558 12.8996 20.3925 12.8873 20.2285 12.863C19.8606 12.8085 19.4921 12.8641 19.218 13.0154C19.0951 13.0831 18.884 13.2314 18.8497 13.4634C18.7947 13.8356 19.2518 14.327 19.9958 14.437C20.4006 14.4968 20.6803 14.8735 20.6204 15.2784C20.566 15.6465 20.2496 15.9111 19.8883 15.9111C19.8522 15.9111 19.8158 15.9084 19.779 15.903C18.2746 15.6806 17.2001 14.4889 17.3837 13.2466C17.477 12.6157 17.8845 12.0585 18.5021 11.7178C19.0626 11.4086 19.7527 11.2946 20.4453 11.3969C20.8132 11.4513 21.1815 11.3958 21.4557 11.2446C21.5786 11.1768 21.7897 11.0285 21.824 10.7966C21.8781 10.4304 21.4359 9.94964 20.7132 9.82946C20.7013 9.82828 20.6894 9.8273 20.6775 9.82556C19.9851 9.72313 19.3574 9.41444 18.9104 8.9562C18.4179 8.4514 18.1889 7.80006 18.2822 7.1691C18.3755 6.53828 18.7831 5.98109 19.4005 5.64038C19.9611 5.33113 20.6512 5.21714 21.3437 5.31951C21.7116 5.37379 22.08 5.3184 22.3541 5.16718C22.477 5.0994 22.6882 4.95111 22.7225 4.71917C22.7567 4.48723 22.5975 4.28417 22.4996 4.18376C22.2809 3.95968 21.9445 3.79991 21.5763 3.74556C21.1716 3.68571 20.8919 3.30903 20.9517 2.90417C21.0115 2.4993 21.3883 2.21997 21.7931 2.27947C22.4856 2.38191 23.1133 2.6906 23.5603 3.14884C24.0529 3.6537 24.2818 4.30505 24.1885 4.93594Z" fill="#BEA4FF"/>
<path d="M5.10642 10.5141C5.10642 11.1945 4.55487 11.746 3.8745 11.746C3.19414 11.746 2.64258 11.1945 2.64258 10.5141C2.64258 9.83375 3.19414 9.28219 3.8745 9.28219C4.55487 9.28219 5.10642 9.83368 5.10642 10.5141ZM27.1273 9.09082C26.3412 9.09082 25.7041 9.72804 25.7041 10.514C25.7041 11.3 26.3413 11.9373 27.1273 11.9373C27.9133 11.9373 28.5505 11.3 28.5505 10.514C28.5505 9.72804 27.9134 9.09082 27.1273 9.09082ZM14.4172 26.9516C13.6311 26.9516 12.994 27.5888 12.994 28.3748C12.994 29.1608 13.6312 29.798 14.4172 29.798C15.2033 29.798 15.8404 29.1608 15.8404 28.3748C15.8404 27.5888 15.2033 26.9516 14.4172 26.9516ZM33.2967 20.4349C33.512 20.0181 33.3486 19.5058 32.9318 19.2905C32.7656 19.2048 32.5673 19.0909 32.3377 18.9592C30.3201 17.8018 26.1221 15.3934 21.179 19.3843C20.814 19.679 20.7571 20.2138 21.0518 20.5787C21.3463 20.9437 21.881 21.0007 22.2461 20.706C26.2847 17.4453 29.5447 19.3152 31.4924 20.4326C31.7292 20.5684 31.9528 20.6968 32.1523 20.7998C32.2514 20.851 32.3596 20.8821 32.4708 20.8915C32.5819 20.9009 32.6938 20.8883 32.8001 20.8544C32.9064 20.8205 33.0049 20.766 33.0901 20.694C33.1754 20.6221 33.2456 20.534 33.2967 20.4349Z" fill="#FF6E83"/>
<path d="M29.677 3.77027C29.677 4.18863 29.3379 4.52774 28.9196 4.52774C28.5012 4.52774 28.1621 4.18863 28.1621 3.77027C28.1621 3.3519 28.5012 3.0128 28.9196 3.0128C29.3379 3.01273 29.677 3.3519 29.677 3.77027ZM2.64126 0.229471C2.22289 0.229471 1.88379 0.568575 1.88379 0.986941C1.88379 1.40531 2.22289 1.74441 2.64126 1.74441C3.05962 1.74441 3.3988 1.40531 3.3988 0.986941C3.3988 0.568575 3.05962 0.229471 2.64126 0.229471ZM14.5187 10.115C14.6043 9.947 14.71 9.7557 14.8218 9.5532C15.3892 8.52531 16.1662 7.11768 16.213 5.47817C16.2692 3.50854 15.2434 1.72026 13.1642 0.163014C12.8032 -0.107336 12.2916 -0.0337815 12.0215 0.327034C11.7512 0.687919 11.8246 1.19953 12.1855 1.46974C13.8382 2.70758 14.6218 4.00353 14.5811 5.43162C14.5456 6.6753 13.9063 7.83353 13.3925 8.76414C13.2742 8.97868 13.1623 9.18125 13.0646 9.37282C12.8596 9.77442 13.019 10.2661 13.4206 10.471C13.5352 10.5297 13.6622 10.5604 13.791 10.5604C13.9416 10.5605 14.0892 10.519 14.2177 10.4403C14.3461 10.3617 14.4503 10.2491 14.5187 10.115Z" fill="#59CAFC"/>
</svg>
